<mxfile host="app.diagrams.net" agent="Mozilla/5.0 (Windows NT 10.0; Win64; x64; rv:133.0) Gecko/20100101 Firefox/133.0" version="25.0.3">
  <diagram name="Page-1" id="JVxttzysrm5RZXgBgevI">
    <mxGraphModel dx="1562" dy="818" grid="1" gridSize="10" guides="1" tooltips="1" connect="1" arrows="1" fold="1" page="1" pageScale="1" pageWidth="850" pageHeight="1100" math="0" shadow="0">
      <root>
        <mxCell id="0" />
        <mxCell id="1" parent="0" />
        <mxCell id="dpW1z254Heb4mDGg4Wh7-2" style="edgeStyle=orthogonalEdgeStyle;rounded=0;orthogonalLoop=1;jettySize=auto;html=1;exitX=0.5;exitY=1;exitDx=0;exitDy=0;" edge="1" parent="1" source="dpW1z254Heb4mDGg4Wh7-1">
          <mxGeometry relative="1" as="geometry">
            <mxPoint x="425" y="170" as="targetPoint" />
          </mxGeometry>
        </mxCell>
        <mxCell id="dpW1z254Heb4mDGg4Wh7-1" value="&lt;div&gt;Start Game&lt;/div&gt;" style="rhombus;whiteSpace=wrap;html=1;" vertex="1" parent="1">
          <mxGeometry x="385" y="50" width="80" height="80" as="geometry" />
        </mxCell>
        <mxCell id="dpW1z254Heb4mDGg4Wh7-4" style="edgeStyle=orthogonalEdgeStyle;rounded=0;orthogonalLoop=1;jettySize=auto;html=1;exitX=0.5;exitY=1;exitDx=0;exitDy=0;" edge="1" parent="1" source="dpW1z254Heb4mDGg4Wh7-3">
          <mxGeometry relative="1" as="geometry">
            <mxPoint x="425" y="360" as="targetPoint" />
          </mxGeometry>
        </mxCell>
        <mxCell id="dpW1z254Heb4mDGg4Wh7-3" value="&lt;div align=&quot;left&quot;&gt;- Draw Game Board&lt;/div&gt;&lt;div align=&quot;left&quot;&gt;- Render player paddles and ball.&lt;/div&gt;&lt;div align=&quot;left&quot;&gt;- Set player scores to 0.&lt;br&gt;&lt;div&gt;- Initial ball server is picked at random.&lt;/div&gt;&lt;div&gt;&lt;br&gt;&lt;br&gt;&lt;/div&gt;&lt;/div&gt;" style="whiteSpace=wrap;html=1;aspect=fixed;align=left;" vertex="1" parent="1">
          <mxGeometry x="350" y="170" width="140" height="140" as="geometry" />
        </mxCell>
        <mxCell id="dpW1z254Heb4mDGg4Wh7-7" style="edgeStyle=orthogonalEdgeStyle;rounded=0;orthogonalLoop=1;jettySize=auto;html=1;exitX=0.5;exitY=1;exitDx=0;exitDy=0;entryX=0.5;entryY=0;entryDx=0;entryDy=0;" edge="1" parent="1" source="dpW1z254Heb4mDGg4Wh7-6" target="dpW1z254Heb4mDGg4Wh7-8">
          <mxGeometry relative="1" as="geometry">
            <mxPoint x="426" y="530" as="targetPoint" />
          </mxGeometry>
        </mxCell>
        <mxCell id="dpW1z254Heb4mDGg4Wh7-6" value="- Player Action Button input, or AI player, launches the ball" style="shape=hexagon;perimeter=hexagonPerimeter2;whiteSpace=wrap;html=1;fixedSize=1;" vertex="1" parent="1">
          <mxGeometry x="343" y="360" width="165" height="90" as="geometry" />
        </mxCell>
        <mxCell id="dpW1z254Heb4mDGg4Wh7-9" style="edgeStyle=orthogonalEdgeStyle;rounded=0;orthogonalLoop=1;jettySize=auto;html=1;exitX=1;exitY=0.5;exitDx=0;exitDy=0;entryX=0;entryY=0.5;entryDx=0;entryDy=0;" edge="1" parent="1" source="dpW1z254Heb4mDGg4Wh7-8" target="dpW1z254Heb4mDGg4Wh7-10">
          <mxGeometry relative="1" as="geometry">
            <mxPoint x="540" y="605" as="targetPoint" />
          </mxGeometry>
        </mxCell>
        <mxCell id="dpW1z254Heb4mDGg4Wh7-8" value="Players bounce ball back and forth trying to score a point by sending ball past opponent." style="whiteSpace=wrap;html=1;aspect=fixed;" vertex="1" parent="1">
          <mxGeometry x="235" y="530" width="150" height="150" as="geometry" />
        </mxCell>
        <mxCell id="dpW1z254Heb4mDGg4Wh7-12" style="edgeStyle=orthogonalEdgeStyle;rounded=0;orthogonalLoop=1;jettySize=auto;html=1;exitX=1;exitY=0.5;exitDx=0;exitDy=0;entryX=1;entryY=0.5;entryDx=0;entryDy=0;" edge="1" parent="1" source="dpW1z254Heb4mDGg4Wh7-10" target="dpW1z254Heb4mDGg4Wh7-6">
          <mxGeometry relative="1" as="geometry" />
        </mxCell>
        <mxCell id="dpW1z254Heb4mDGg4Wh7-10" value="&lt;div&gt;- Scoring player earns points.&lt;/div&gt;&lt;div&gt;- Scoring player serves ball.&lt;br&gt;&lt;/div&gt;" style="whiteSpace=wrap;html=1;aspect=fixed;" vertex="1" parent="1">
          <mxGeometry x="550" y="540" width="130" height="130" as="geometry" />
        </mxCell>
      </root>
    </mxGraphModel>
  </diagram>
</mxfile>
